<svg version="1.1" id="Layer_1" xmlns="http://www.w3.org/2000/svg" xmlns:xlink="http://www.w3.org/1999/xlink" x="0px" y="0px"
	 width="100%" viewBox="0 0 500 500" enable-background="new 0 0 500 500" xml:space="preserve">
<path fill="#000000" opacity="1.000000" stroke="none" 
	d="
M224.000000,501.000000 
	C149.333344,501.000000 75.166702,501.000000 1.000040,501.000000 
	C1.000026,334.333405 1.000026,167.666779 1.000013,1.000129 
	C167.666565,1.000086 334.333130,1.000086 500.999756,1.000043 
	C500.999847,167.666534 500.999847,334.333069 500.999939,500.999817 
	C408.833344,501.000000 316.666656,501.000000 224.000000,501.000000 
M54.999722,233.425690 
	C55.000469,235.092102 55.015850,236.758652 54.999641,238.424911 
	C54.869225,251.831345 68.535446,262.815277 78.826431,262.955231 
	C94.155029,263.163757 109.488770,262.984344 124.820312,262.990875 
	C130.732834,262.993408 135.553482,260.212494 139.807007,256.604980 
	C146.506516,250.922974 149.195679,243.438431 149.054337,234.655319 
	C148.845215,221.660172 148.645142,208.646942 149.090698,195.663727 
	C149.638779,179.692917 136.083450,168.404968 121.791122,168.068771 
	C108.300156,167.751434 94.795250,167.927628 81.297493,168.026077 
	C66.861542,168.131363 55.016827,180.104477 55.002415,194.448837 
	C54.989693,207.114044 54.999748,219.779297 54.999722,233.425690 
M345.794678,258.942474 
	C350.074127,256.621643 354.353607,254.300827 358.780518,251.900040 
	C358.930664,253.433502 359.085754,255.017670 359.243896,256.632996 
	C362.518280,256.632996 365.579193,256.632996 368.566895,256.632996 
	C368.566895,226.584137 368.566895,196.904541 368.566895,167.358444 
	C364.540039,167.358444 360.955841,167.358444 357.498016,167.358444 
	C357.498016,178.187973 357.498016,188.657867 357.498016,199.166107 
	C345.476196,190.595245 330.216675,192.704102 322.557831,201.896042 
	C317.422791,208.059006 314.733307,215.231155 314.117767,223.029999 
	C313.462738,231.329147 314.738556,239.644882 318.700531,246.954208 
	C324.263702,257.217651 333.931274,259.874756 345.794678,258.942474 
M196.475220,257.000000 
	C200.233917,257.000000 203.992615,257.000000 207.671875,257.000000 
	C207.671875,253.611206 207.671875,251.019592 207.671875,247.787399 
	C194.975037,247.787399 182.594635,247.787399 170.363785,247.787399 
	C170.363785,237.540573 170.363785,227.953888 170.363785,217.902649 
	C180.647552,217.902649 190.576141,217.902649 200.608307,217.902649 
	C200.608307,214.717850 200.608307,212.019348 200.608307,208.846573 
	C190.300781,208.846573 180.377914,208.846573 170.424500,208.846573 
	C170.424500,199.986389 170.424500,191.615784 170.424500,182.784988 
	C182.773636,182.784988 194.704102,182.784988 206.730835,182.784988 
	C206.730835,179.722244 206.730835,177.134506 206.730835,174.378876 
	C190.755951,174.378876 175.051102,174.378876 159.306885,174.378876 
	C159.306885,202.008743 159.306885,229.258698 159.306885,257.000000 
	C171.566040,257.000000 183.524841,257.000000 196.475220,257.000000 
M408.888123,258.996521 
	C418.050018,259.429474 426.999847,259.001282 434.851685,252.531433 
	C433.450012,250.138702 432.068512,247.780334 430.705383,245.453369 
	C415.998871,251.280319 410.256683,251.505569 403.677765,246.078171 
	C398.828888,242.077988 395.850983,237.036987 396.177368,230.000275 
	C406.558350,230.000275 416.523865,230.093109 426.486908,229.976273 
	C438.365662,229.836990 437.404663,232.188034 436.803040,218.849625 
	C436.448334,210.984833 434.049927,203.196960 427.088867,198.100479 
	C417.743439,191.258286 400.030701,192.085129 390.592896,204.635178 
	C378.462524,220.765656 382.548431,255.097046 408.888123,258.996521 
M239.018814,199.476349 
	C237.558228,201.101379 236.097641,202.726410 234.219543,204.815948 
	C234.036667,201.480652 233.895813,198.911484 233.750992,196.270203 
	C230.382736,196.270203 227.463943,196.270203 224.341095,196.270203 
	C224.341095,216.558685 224.341095,236.576218 224.341095,256.738220 
	C227.933670,256.738220 231.182739,256.738220 234.746094,256.738220 
	C234.838333,254.887024 234.985565,253.264862 234.989166,251.642380 
	C235.011353,241.658783 234.900894,231.673828 235.027954,221.691788 
	C235.174576,210.170807 245.116959,202.270081 256.454437,204.637924 
	C257.325836,201.708649 258.199524,198.771622 259.053040,195.902405 
	C252.521591,192.128799 245.375549,193.322556 239.018814,199.476349 
M278.196381,248.401520 
	C276.415436,253.576172 274.634491,258.750824 272.853577,263.925476 
	C273.320038,264.128174 273.786499,264.330872 274.252960,264.533569 
	C282.903198,251.341293 291.553406,238.149017 301.074005,223.629364 
	C295.349915,223.629364 291.216309,223.629364 286.360352,223.629364 
	C288.808167,218.381973 290.808838,214.093124 293.299408,208.754074 
	C289.773590,208.754074 287.165710,208.980225 284.612946,208.701462 
	C280.713531,208.275604 278.532196,209.607574 277.290649,213.505508 
	C275.934326,217.763657 273.772400,221.760605 272.053802,225.909576 
	C270.899963,228.695206 269.906494,231.547241 268.599579,235.009949 
	C273.789703,235.009949 277.872894,235.009949 282.766022,235.009949 
	C281.233002,239.592010 279.879913,243.636307 278.196381,248.401520 
M282.658386,202.958878 
	C285.141388,202.972427 287.634583,203.123154 290.103027,202.940277 
	C291.296051,202.851883 293.194336,202.427383 293.491577,201.659164 
	C295.916565,195.391998 298.038513,189.007629 300.671356,181.458405 
	C297.707458,182.143341 295.035797,181.954697 294.275848,183.069412 
	C289.911957,189.470352 286.001404,196.180359 282.658386,202.958878 
z"/>
<path fill="#3F1ABF" opacity="1.000000" stroke="none" 
	d="
M54.999733,232.935104 
	C54.999748,219.779297 54.989693,207.114044 55.002415,194.448837 
	C55.016827,180.104477 66.861542,168.131363 81.297493,168.026077 
	C94.795250,167.927628 108.300156,167.751434 121.791122,168.068771 
	C136.083450,168.404968 149.638779,179.692917 149.090698,195.663727 
	C148.645142,208.646942 148.845215,221.660172 149.054337,234.655319 
	C149.195679,243.438431 146.506516,250.922974 139.807007,256.604980 
	C135.553482,260.212494 130.732834,262.993408 124.820312,262.990875 
	C109.488770,262.984344 94.155029,263.163757 78.826431,262.955231 
	C68.535446,262.815277 54.869225,251.831345 54.999641,238.424911 
	C55.015850,236.758652 55.000469,235.092102 54.999733,232.935104 
M122.091545,224.636063 
	C129.522263,214.244934 134.831909,202.988876 135.767136,190.062637 
	C135.835312,189.120468 134.188507,187.153458 133.408859,187.189133 
	C125.038872,187.572144 116.524429,187.452805 108.359016,189.051559 
	C94.914383,191.683990 86.864052,201.464188 80.064095,212.646820 
	C75.985596,219.353989 75.632477,226.337891 76.235779,234.104904 
	C76.977341,233.473602 77.440178,233.239166 77.667862,232.862564 
	C84.204788,222.049957 94.235588,214.590057 103.441566,206.393494 
	C104.794777,205.188660 107.882263,205.931671 110.167305,205.773422 
	C109.672493,207.792084 109.839493,210.524719 108.566933,211.704300 
	C103.397270,216.496155 97.369919,220.404282 92.458977,225.421494 
	C87.912415,230.066406 84.385971,235.709869 79.954025,241.510849 
	C90.401176,243.104889 98.536842,240.500626 106.047974,236.354248 
	C111.644524,233.264801 116.618057,229.046768 122.091545,224.636063 
z"/>
<path fill="#3F1ABF" opacity="1.000000" stroke="none" 
	d="
M345.362274,258.964508 
	C333.931274,259.874756 324.263702,257.217651 318.700531,246.954208 
	C314.738556,239.644882 313.462738,231.329147 314.117767,223.029999 
	C314.733307,215.231155 317.422791,208.059006 322.557831,201.896042 
	C330.216675,192.704102 345.476196,190.595245 357.498016,199.166107 
	C357.498016,188.657867 357.498016,178.187973 357.498016,167.358444 
	C360.955841,167.358444 364.540039,167.358444 368.566895,167.358444 
	C368.566895,196.904541 368.566895,226.584137 368.566895,256.632996 
	C365.579193,256.632996 362.518280,256.632996 359.243896,256.632996 
	C359.085754,255.017670 358.930664,253.433502 358.780518,251.900040 
	C354.353607,254.300827 350.074127,256.621643 345.362274,258.964508 
M328.085907,214.870026 
	C327.391693,219.871277 325.799805,224.943451 326.188171,229.859161 
	C327.023315,240.428909 329.916779,248.430435 342.971802,249.540512 
	C348.295013,249.993179 356.902710,243.898697 356.964844,238.969360 
	C357.077850,230.004700 357.127136,221.034012 356.880493,212.074707 
	C356.834351,210.398834 355.706146,208.147125 354.351593,207.209290 
	C344.036438,200.067398 334.128296,202.812988 328.085907,214.870026 
z"/>
<path fill="#3F1ABF" opacity="1.000000" stroke="none" 
	d="
M195.979431,257.000000 
	C183.524841,257.000000 171.566040,257.000000 159.306885,257.000000 
	C159.306885,229.258698 159.306885,202.008743 159.306885,174.378876 
	C175.051102,174.378876 190.755951,174.378876 206.730835,174.378876 
	C206.730835,177.134506 206.730835,179.722244 206.730835,182.784988 
	C194.704102,182.784988 182.773636,182.784988 170.424500,182.784988 
	C170.424500,191.615784 170.424500,199.986389 170.424500,208.846573 
	C180.377914,208.846573 190.300781,208.846573 200.608307,208.846573 
	C200.608307,212.019348 200.608307,214.717850 200.608307,217.902649 
	C190.576141,217.902649 180.647552,217.902649 170.363785,217.902649 
	C170.363785,227.953888 170.363785,237.540573 170.363785,247.787399 
	C182.594635,247.787399 194.975037,247.787399 207.671875,247.787399 
	C207.671875,251.019592 207.671875,253.611206 207.671875,257.000000 
	C203.992615,257.000000 200.233917,257.000000 195.979431,257.000000 
z"/>
<path fill="#3F1ABF" opacity="1.000000" stroke="none" 
	d="
M408.436584,258.989594 
	C382.548431,255.097046 378.462524,220.765656 390.592896,204.635178 
	C400.030701,192.085129 417.743439,191.258286 427.088867,198.100479 
	C434.049927,203.196960 436.448334,210.984833 436.803040,218.849625 
	C437.404663,232.188034 438.365662,229.836990 426.486908,229.976273 
	C416.523865,230.093109 406.558350,230.000275 396.177368,230.000275 
	C395.850983,237.036987 398.828888,242.077988 403.677765,246.078171 
	C410.256683,251.505569 415.998871,251.280319 430.705383,245.453369 
	C432.068512,247.780334 433.450012,250.138702 434.851685,252.531433 
	C426.999847,259.001282 418.050018,259.429474 408.436584,258.989594 
M398.001770,220.971405 
	C407.562836,220.971405 417.123871,220.971405 426.717163,220.971405 
	C426.421906,218.572983 426.606506,216.612289 425.899506,215.056870 
	C424.467926,211.907440 423.242340,208.095886 420.711914,206.118057 
	C412.156219,199.430618 400.911316,203.905884 397.133301,215.184799 
	C396.560760,216.894058 397.090637,218.972610 398.001770,220.971405 
z"/>
<path fill="#3F1ABF" opacity="1.000000" stroke="none" 
	d="
M239.275665,199.225067 
	C245.375549,193.322556 252.521591,192.128799 259.053040,195.902405 
	C258.199524,198.771622 257.325836,201.708649 256.454437,204.637924 
	C245.116959,202.270081 235.174576,210.170807 235.027954,221.691788 
	C234.900894,231.673828 235.011353,241.658783 234.989166,251.642380 
	C234.985565,253.264862 234.838333,254.887024 234.746094,256.738220 
	C231.182739,256.738220 227.933670,256.738220 224.341095,256.738220 
	C224.341095,236.576218 224.341095,216.558685 224.341095,196.270203 
	C227.463943,196.270203 230.382736,196.270203 233.750992,196.270203 
	C233.895813,198.911484 234.036667,201.480652 234.219543,204.815948 
	C236.097641,202.726410 237.558228,201.101379 239.275665,199.225067 
z"/>
<path fill="#17BC5D" opacity="1.000000" stroke="none" 
	d="
M278.361603,248.041046 
	C279.879913,243.636307 281.233002,239.592010 282.766022,235.009949 
	C277.872894,235.009949 273.789703,235.009949 268.599579,235.009949 
	C269.906494,231.547241 270.899963,228.695206 272.053802,225.909576 
	C273.772400,221.760605 275.934326,217.763657 277.290649,213.505508 
	C278.532196,209.607574 280.713531,208.275604 284.612946,208.701462 
	C287.165710,208.980225 289.773590,208.754074 293.299408,208.754074 
	C290.808838,214.093124 288.808167,218.381973 286.360352,223.629364 
	C291.216309,223.629364 295.349915,223.629364 301.074005,223.629364 
	C291.553406,238.149017 282.903198,251.341293 274.252960,264.533569 
	C273.786499,264.330872 273.320038,264.128174 272.853577,263.925476 
	C274.634491,258.750824 276.415436,253.576172 278.361603,248.041046 
z"/>
<path fill="#16C264" opacity="1.000000" stroke="none" 
	d="
M282.297729,202.872208 
	C286.001404,196.180359 289.911957,189.470352 294.275848,183.069412 
	C295.035797,181.954697 297.707458,182.143341 300.671356,181.458405 
	C298.038513,189.007629 295.916565,195.391998 293.491577,201.659164 
	C293.194336,202.427383 291.296051,202.851883 290.103027,202.940277 
	C287.634583,203.123154 285.141388,202.972427 282.297729,202.872208 
z"/>
<path fill="#000000" opacity="1.000000" stroke="none" 
	d="
M121.980301,224.983704 
	C116.618057,229.046768 111.644524,233.264801 106.047974,236.354248 
	C98.536842,240.500626 90.401176,243.104889 79.954025,241.510849 
	C84.385971,235.709869 87.912415,230.066406 92.458977,225.421494 
	C97.369919,220.404282 103.397270,216.496155 108.566933,211.704300 
	C109.839493,210.524719 109.672493,207.792084 110.167313,205.773438 
	C107.882263,205.931671 104.794777,205.188660 103.441566,206.393494 
	C94.235588,214.590057 84.204788,222.049957 77.667862,232.862564 
	C77.440178,233.239166 76.977341,233.473602 76.235779,234.104904 
	C75.632477,226.337891 75.985596,219.353989 80.064095,212.646820 
	C86.864052,201.464188 94.914383,191.683990 108.359016,189.051559 
	C116.524429,187.452805 125.038872,187.572144 133.408859,187.189133 
	C134.188507,187.153458 135.835312,189.120468 135.767136,190.062637 
	C134.831909,202.988876 129.522263,214.244934 121.980301,224.983704 
z"/>
<path fill="#000000" opacity="1.000000" stroke="none" 
	d="
M328.239716,214.509964 
	C334.128296,202.812988 344.036438,200.067398 354.351593,207.209290 
	C355.706146,208.147125 356.834351,210.398834 356.880493,212.074707 
	C357.127136,221.034012 357.077850,230.004700 356.964844,238.969360 
	C356.902710,243.898697 348.295013,249.993179 342.971802,249.540512 
	C329.916779,248.430435 327.023315,240.428909 326.188171,229.859161 
	C325.799805,224.943451 327.391693,219.871277 328.239716,214.509964 
z"/>
<path fill="#000000" opacity="1.000000" stroke="none" 
	d="
M397.556183,220.925873 
	C397.090637,218.972610 396.560760,216.894058 397.133301,215.184799 
	C400.911316,203.905884 412.156219,199.430618 420.711914,206.118057 
	C423.242340,208.095886 424.467926,211.907440 425.899506,215.056870 
	C426.606506,216.612289 426.421906,218.572983 426.717163,220.971405 
	C417.123871,220.971405 407.562836,220.971405 397.556183,220.925873 
z"/>
</svg>